<svg width="1724" height="455" viewBox="0 0 1724 455" fill="none" xmlns="http://www.w3.org/2000/svg">
<g clip-path="url(#clip0_1_173)">
<path d="M39.1754 439C36.2889 439 34.227 439 31.7526 439L31.3402 438.554C30.1031 433.195 28.8661 429.179 27.629 423.821C24.7422 423.821 22.2681 423.821 19.3813 423.821C16.9073 423.821 14.0204 423.821 11.1339 423.821C9.48444 429.179 8.65985 432.749 7.42252 438.554L7.01037 439C4.53601 439 2.88652 439 0.412152 439L0 438.554C7.42252 415.785 13.6083 396.59 14.8453 391.231L15.2578 389.446L15.6702 389C18.9692 389 21.4433 389 25.1547 389L25.5671 389.446L25.9796 390.785C30.928 408.642 34.6394 420.697 40 438.554L39.1754 439ZM19.3813 394.355L12.371 418.016C12.7834 418.016 16.9073 418.016 18.9692 418.016C21.0308 418.016 24.7422 418.016 25.5671 418.016L19.3813 394.355Z" fill="#0F2D52"/>
<path d="M63.2465 438.13C63.2465 433.34 63.2465 429.86 63.2465 425.07V418.543C63.2465 414.189 62.8495 407.66 57.2877 407.66C53.315 407.66 50.1369 410.273 48.9452 411.579V415.93C48.9452 423.765 48.9452 429.424 49.3425 437.695L48.9452 438.13C46.5615 438.13 44.9725 438.13 42.1917 438.565L41.7944 438.13C41.7944 433.34 41.7944 430.295 41.7944 425.505C41.7944 417.67 41.7944 412.014 41 404.179L41.397 403.743C43.7807 403.308 45.7671 402.873 48.1505 402.438L48.5479 402.873C48.5479 404.179 48.5479 406.354 48.5479 406.354C50.5342 405.049 54.507 402 59.6711 402C65.2329 402 68.0136 405.484 68.8083 408.965C69.2056 410.708 69.6027 413.754 69.6027 416.365V424.2C69.6027 429.424 69.6027 432.905 70 438.13L69.6027 438.565C67.2193 438.565 65.6302 438.565 63.2465 439V438.13Z" fill="#0F2D52"/>
<path d="M93.5531 438.552C92.2128 439 90.8725 439 88.1915 439C80.1489 439 78.3616 434.964 78.3616 428.683C78.3616 425.993 78.3616 419.263 78.3616 407.601C77.0213 407.601 75.2341 407.601 73.4469 407.601L73 407.149C73 405.356 73 404.011 73 402.217L73.4469 401.768C73.8938 401.768 75.2341 401.768 76.1279 401.768C77.0213 401.768 77.9151 401.768 78.3616 401.768C78.3616 398.626 78.3616 396.384 77.9151 393.245L78.3616 392.797C81.0426 392.348 82.8298 391.452 85.5108 391L85.9574 391.452C85.9574 395.487 85.5108 398.178 85.5108 402.217C88.1915 402.217 91.3193 402.217 93.5531 402.217L94 402.665C94 404.459 94 405.804 94 407.601L93.5531 408.049C90.8724 408.049 88.6384 408.049 85.9574 408.049C85.9574 408.049 85.9574 421.954 85.9574 423.299C85.9574 431.825 85.9574 434.067 89.9787 434.067C91.3193 434.067 93.1065 433.619 93.5531 433.619L94 434.067C94 434.964 94 436.309 93.5531 438.552Z" fill="#0F2D52"/>
<path d="M122.699 436.42C120.781 437.71 117.712 439 113.11 439C102.37 439 97 432.116 97 420.932C97 406.304 105.438 402 111.575 402C112.343 402 116.178 402 119.246 404.583C124.233 408.454 125 415.338 125 419.641V421.362L124.616 421.792C122.315 421.792 116.945 421.792 113.11 421.792C110.041 421.792 106.589 421.792 103.521 421.792C103.521 431.686 109.657 433.839 113.493 433.839C118.096 433.839 121.164 431.686 123.082 429.966L123.466 430.396C123.082 432.546 123.082 434.269 123.082 436.42H122.699ZM109.274 416.198C112.726 416.198 116.562 416.198 118.479 416.198C118.479 411.897 116.562 406.734 111.192 406.734C106.589 406.734 103.521 411.467 103.137 416.198H109.274Z" fill="#0F2D52"/>
<path d="M152.014 438.13C152.014 433.34 152.014 429.86 152.014 425.07V418.543C152.014 414.189 151.603 407.66 145.849 407.66C141.74 407.66 138.452 410.273 137.219 411.579V415.93C137.219 423.765 137.219 429.424 137.63 437.695L137.219 438.13C134.754 438.13 133.11 438.13 130.233 438.565L129.822 438.13C129.822 433.34 129.822 430.295 129.822 425.505C129.822 417.67 129.822 412.014 129 404.179L129.411 403.743C131.877 403.308 133.931 402.873 136.397 402.438L136.808 402.873C136.808 404.179 136.808 406.354 136.808 406.354C138.863 405.049 142.973 402 148.315 402C154.069 402 156.945 405.484 157.767 408.965C158.178 410.708 158.589 413.754 158.589 416.365V424.2C158.589 429.424 158.589 432.905 159 438.13L158.589 438.565C156.123 438.565 154.479 438.565 152.014 439V438.13Z" fill="#0F2D52"/>
<path d="M188.247 438.13C188.247 433.34 188.247 429.86 188.247 425.07V418.543C188.247 414.189 187.849 407.66 182.288 407.66C178.315 407.66 175.137 410.273 173.945 411.579V415.93C173.945 423.765 173.945 429.424 174.343 437.695L173.945 438.13C171.561 438.13 169.972 438.13 167.192 438.565L166.794 438.13C166.794 433.34 166.794 430.295 166.794 425.505C166.794 417.67 166.794 412.014 166 404.179L166.397 403.743C168.781 403.308 170.767 402.873 173.151 402.438L173.548 402.873C173.548 404.179 173.548 406.354 173.548 406.354C175.534 405.049 179.507 402 184.671 402C190.233 402 193.014 405.484 193.808 408.965C194.206 410.708 194.603 413.754 194.603 416.365V424.2C194.603 429.424 194.603 432.905 195 438.13L194.603 438.565C192.219 438.565 190.63 438.565 188.247 439V438.13Z" fill="#0F2D52"/>
<path d="M227 438.127C224.455 438.127 222.759 438.127 220.212 438.563L219.788 438.127V435.504C218.093 437.254 215.122 439 210.878 439C204.09 439 199 434.631 199 427.206C199 415.851 211.304 414.541 218.516 413.668H219.788C219.788 411.045 219.788 406.679 213.423 406.679C208.757 406.679 205.362 408.425 203.241 409.299L202.817 408.862C202.817 405.366 202.817 404.493 202.817 403.62L203.241 403.183C206.635 401.873 211.304 401 214.699 401C219.788 401 226.577 402.746 226.577 411.918V423.713C227 428.952 227 432.448 227 438.127ZM220.212 418.47H219.788C212.577 419.344 206.635 421.09 206.635 426.332C206.635 428.079 207.484 432.884 213 432.884C215.545 432.884 218.093 432.011 220.638 429.828V418.47H220.212Z" fill="#0F2D52"/>
<path d="M233.412 436.068C233.82 433.884 233.82 432.575 233.82 430.392H234.229C235.87 431.701 239.149 433.884 243.248 433.884C247.755 433.884 250.214 431.265 250.214 428.642C250.214 425.149 246.935 424.276 244.065 423.403L241.198 422.53C238.328 421.656 233 419.47 233 412.482C233 406.806 237.099 402 246.115 402C250.622 402 253.492 403.31 255.542 404.183L255.951 404.62C255.951 406.806 255.542 408.116 255.542 409.862L255.133 410.299C252.263 408.116 249.805 407.679 246.526 407.679C242.836 407.679 240.378 409.425 240.378 412.045C240.378 415.541 244.885 416.414 246.935 417.287L249.393 418.161C251.443 419.034 258 421.217 258 428.206C258 435.194 252.263 440 244.065 440C238.74 440 236.279 438.69 233.82 437.817L233.412 436.068Z" fill="#0F2D52"/>
<path d="M304 438.127C301.455 438.127 299.757 438.127 297.212 438.563L296.789 438.127V435.504C295.091 437.254 292.123 439 287.88 439C281.092 439 276 434.631 276 427.206C276 415.851 288.303 414.541 295.517 413.668H296.789C296.789 411.045 296.789 406.679 290.425 406.679C285.758 406.679 282.365 408.425 280.243 409.299L279.82 408.862C279.82 405.366 279.82 404.493 279.82 403.62L280.243 403.183C283.637 401.873 288.303 401 291.697 401C296.789 401 303.577 402.746 303.577 411.918V423.713C304 428.952 304 432.448 304 438.127ZM297.212 418.47H296.789C289.575 419.344 283.637 421.09 283.637 426.332C283.637 428.079 284.486 432.884 290.001 432.884C292.546 432.884 295.091 432.011 297.635 429.828V418.47H297.212Z" fill="#0F2D52"/>
<path d="M333.779 438.13C333.779 433.34 333.779 429.86 333.779 425.07V418.543C333.779 414.189 333.356 407.66 327.409 407.66C323.165 407.66 319.768 410.273 318.494 411.579V415.93C318.494 423.765 318.494 429.424 318.918 437.695L318.494 438.13C315.944 438.13 314.247 438.13 311.274 438.565L310.85 438.13C310.85 433.34 310.85 430.295 310.85 425.505C310.85 417.67 310.85 412.014 310 404.179L310.424 403.743C312.974 403.308 315.097 402.873 317.644 402.438L318.068 402.873C318.068 404.179 318.068 406.354 318.068 406.354C320.191 405.049 324.438 402 329.959 402C335.903 402 338.876 405.484 339.724 408.965C340.15 410.708 340.574 413.754 340.574 416.365V424.2C340.574 429.424 340.574 432.905 341 438.13L340.574 438.565C338.026 438.565 336.326 438.565 333.779 439V438.13Z" fill="#0F2D52"/>
<path d="M367.751 438.118V435.471C365.843 437.237 363.554 439 359.354 439C357.066 439 354.013 438.118 351.344 435.911C346.764 431.944 346 425.771 346 421.363C346 412.1 350.197 401.519 364.698 401.519C365.843 401.519 366.987 401.519 368.131 401.519V399.756C368.131 394.463 368.131 390.496 367.751 384.763L368.131 384.322C370.42 383.882 372.328 383.441 374.617 383L375 383.441C374.617 395.786 374.617 404.604 374.617 416.952C374.617 424.889 374.617 430.181 375 438.118L374.617 438.559C372.328 438.559 370.803 438.559 368.512 439L367.751 438.118ZM367.751 417.393C367.751 414.307 367.751 409.456 367.751 407.693C366.606 407.693 365.843 407.693 364.698 407.693C353.633 407.693 352.488 416.952 352.488 421.804C352.488 430.622 357.066 433.708 360.882 433.708C363.934 433.708 366.223 431.945 367.367 430.622C367.367 428.415 367.367 424.007 367.367 420.478V417.393H367.751Z" fill="#0F2D52"/>
<path d="M408.499 439C406.132 439 404.158 439 401.79 439L401.396 438.558C401.396 431.035 401.396 425.728 401.396 416.878C401.396 407.583 401.396 400.061 401 389.885L401.396 389.442H402.974C404.158 389.442 412.447 389 414.027 389C417.973 389 422.317 389 425.868 392.096C428.236 393.869 429.026 395.638 429.42 396.522C431 399.619 431 403.16 431 404.045C431 404.929 431 409.356 428.236 413.337C424.685 418.205 419.553 419.974 411.263 419.974C410.08 419.974 409.289 419.974 408.499 419.974C408.499 426.612 408.896 431.478 408.896 438.115L408.499 439ZM410.08 414.663C416.395 414.663 419.947 414.221 422.317 410.683C423.501 409.356 424.288 407.583 424.288 404.487C424.288 395.638 417.973 395.196 415.211 395.196C411.263 395.196 410.473 395.196 408.499 395.196C408.499 398.292 408.499 401.833 408.499 404.929C408.499 408.026 408.499 411.125 408.499 414.221H410.08V414.663Z" fill="#0F2D52"/>
<path d="M443.237 438.565C440.953 438.565 439.047 438.565 436.763 439L436.38 438.565V435.519C436.38 434.649 436.38 424.635 436.38 422.024C436.38 416.8 436.38 409.4 436 404.179L436.38 403.743C438.668 403.308 440.19 402.873 442.475 402.438L442.858 402.873L442.475 408.53C443.237 406.354 444.763 402 449.712 402C450.858 402 451.237 402 451.617 402L452 402.438C451.617 405.049 451.237 406.789 450.858 409.4L450.475 409.835C449.332 409.4 448.57 409.4 448.19 409.4C446.665 409.4 443.237 410.708 443.237 417.235V422.46C443.237 428.119 443.237 432.035 443.237 438.565Z" fill="#0F2D52"/>
<path d="M469.999 439C463.025 439 454 435.56 454 420.501C454 405.013 463.846 402 470.411 402C476.975 402 486 405.013 486 420.501C486 435.56 476.975 439 469.999 439ZM470.411 407.164C463.846 407.164 461.383 412.757 461.383 420.501C461.383 430.826 465.486 433.839 470.411 433.839C476.975 433.839 479.436 429.106 479.436 420.501C479.027 416.198 478.614 407.164 470.411 407.164Z" fill="#0F2D52"/>
<path d="M499.749 454C497.71 454 495.67 454 492.816 454L492.407 453.569C492.816 447.967 492.816 444.087 492.816 438.057C492.816 432.024 492.816 422.545 492.816 420.389C492.816 413.928 492.816 409.617 492 403.154L492.407 402.723C494.856 402.292 496.896 401.861 499.343 401.431L499.749 401.861V404.877C501.789 403.584 504.645 401 509.132 401C518.104 401 523 409.187 523 417.374C523 422.545 521.777 426.422 520.144 428.575C515.658 435.901 508.315 437.627 502.606 437.627C501.382 437.627 500.566 437.627 499.749 437.627C499.749 443.657 499.749 447.536 499.749 454ZM502.199 432.455C510.762 432.455 515.658 426.852 515.658 418.235C515.658 410.048 510.762 407.033 506.685 407.033C503.012 407.033 500.566 408.756 499.343 410.048C499.343 412.202 499.343 417.373 499.343 420.819C499.343 424.699 499.343 428.575 499.343 432.455C500.566 432.455 501.382 432.455 502.199 432.455Z" fill="#0F2D52"/>
<path d="M553 438.127C550.637 438.127 549.06 438.127 546.697 438.563L546.304 438.127V435.504C544.727 437.254 541.969 439 538.031 439C531.729 439 527 434.631 527 427.206C527 415.851 538.424 414.541 545.12 413.668H546.304C546.304 411.045 546.304 406.679 540.394 406.679C536.061 406.679 532.91 408.425 530.94 409.299L530.544 408.862C530.544 405.366 530.544 404.493 530.544 403.62L530.94 403.183C534.091 401.873 538.424 401 541.576 401C546.304 401 552.607 402.746 552.607 411.918V423.713C553 428.952 553 432.448 553 438.127ZM546.304 418.47H545.909C539.213 419.344 533.698 421.09 533.698 426.332C533.698 428.079 534.484 432.884 539.606 432.884C541.969 432.884 544.334 432.011 546.697 429.828V418.47H546.304Z" fill="#0F2D52"/>
<path d="M560.559 431.732C562.267 429.148 563.547 427.422 565.252 424.837C560.134 422.684 558.854 418.373 558.854 414.497C558.854 410.617 560.134 408.033 561.413 406.741C564.827 402.431 569.945 402 573.787 402C575.067 402 577.201 402 579.334 402C585.733 402 587.441 402 589.574 402L590 402.431C590 404.154 590 405.015 589.574 406.741L589.146 407.172L583.599 406.741C584.878 408.033 586.587 410.617 586.587 414.497C586.587 420.961 581.894 426.56 573.359 426.56C572.079 426.56 571.654 426.56 570.374 426.56L568.24 429.578C576.347 432.163 581.465 432.163 584.878 434.747C588.72 437.765 588.72 441.642 588.72 442.503C588.72 448.536 584.027 455 573.359 455C563.119 455 558 450.259 558 444.229C558 439.057 561.413 436.47 563.973 434.316C563.119 433.886 561.839 433.455 560.985 433.024L560.559 431.732ZM568.24 436.039C566.96 437.765 564.398 439.488 564.398 443.364C564.398 446.813 566.96 450.259 573.359 450.259C578.906 450.259 581.465 447.244 581.465 444.229C581.465 439.919 577.201 438.627 574.213 437.765L568.24 436.039ZM572.933 406.741C568.24 406.741 565.681 410.187 565.681 414.497C565.681 416.651 566.532 422.253 572.933 422.253C579.334 422.253 579.76 416.22 579.76 414.497C579.76 410.617 577.626 406.741 572.933 406.741Z" fill="#0F2D52"/>
<path d="M617 438.127C614.728 438.127 613.212 438.127 610.94 438.563L610.562 438.127V435.504C609.045 437.254 606.396 439 602.607 439C596.547 439 592 434.631 592 427.206C592 415.851 602.985 414.541 609.426 413.668H610.562C610.562 411.045 610.562 406.679 604.879 406.679C600.713 406.679 597.683 408.425 595.788 409.299L595.411 408.862C595.411 405.366 595.411 404.493 595.411 403.62L595.788 403.183C598.819 401.873 602.985 401 606.015 401C610.562 401 616.622 402.746 616.622 411.918V423.713C617 428.952 617 432.448 617 438.127ZM610.94 418.47H610.562C604.121 419.344 598.819 421.09 598.819 426.332C598.819 428.079 599.577 432.884 604.501 432.884C606.773 432.884 609.045 432.011 611.32 429.828V418.47H610.94Z" fill="#0F2D52"/>
<path d="M638.597 438.552C637.382 439 636.169 439 633.745 439C626.468 439 624.852 434.964 624.852 428.683C624.852 425.993 624.852 419.263 624.852 407.601C623.64 407.601 622.022 407.601 620.406 407.601L620 407.149C620 405.356 620 404.011 620 402.217L620.406 401.768C620.809 401.768 622.022 401.768 622.831 401.768C623.64 401.768 624.446 401.768 624.852 401.768C624.852 398.626 624.852 396.384 624.446 393.245L624.852 392.797C627.277 392.348 628.895 391.452 631.32 391L631.723 391.452C631.723 395.487 631.32 398.178 631.32 402.217C633.745 402.217 636.575 402.217 638.597 402.217L639 402.665C639 404.459 639 405.804 639 407.601L638.597 408.049C636.169 408.049 634.148 408.049 631.723 408.049C631.723 408.049 631.723 421.954 631.723 423.299C631.723 431.825 631.723 434.067 635.363 434.067C636.575 434.067 638.191 433.619 638.597 433.619L639 434.067C639 434.964 639 436.309 638.597 438.552Z" fill="#0F2D52"/>
<path d="M643.38 438.129C643.763 432.906 643.763 428.985 643.763 423.758C643.763 413.307 643.763 409.39 643 404.163L643.38 403.728C645.668 403.292 647.573 402.857 649.858 402.422L650.62 402.857C650.237 408.951 650.237 412.872 650.237 418.97C650.237 425.938 650.237 431.161 650.62 438.129L650.237 438.565C647.953 438.565 646.047 438.565 643.763 439L643.38 438.129ZM643.38 392.839C643.38 391.968 643.38 391.097 643.38 390.227C643.38 388.921 643.38 388.05 643.38 386.309L643.763 385.874C646.427 385.874 647.952 385.435 650.62 385L651 385.435C651 386.309 651 387.615 651 388.486C651 389.791 651 390.662 651 391.968L650.62 392.403C647.952 392.839 646.048 392.839 643.38 392.839Z" fill="#0F2D52"/>
<path d="M672.501 439C665.743 439 657 435.56 657 420.501C657 405.013 666.539 402 672.898 402C679.257 402 688 405.013 688 420.501C688 435.56 679.257 439 672.501 439ZM672.898 407.164C666.539 407.164 664.155 412.757 664.155 420.501C664.155 430.826 668.13 433.839 672.898 433.839C679.257 433.839 681.641 429.106 681.641 420.501C681.244 416.198 680.848 407.164 672.898 407.164Z" fill="#0F2D52"/>
<path d="M715.782 438.13C715.782 433.34 715.782 429.86 715.782 425.07V418.543C715.782 414.189 715.358 407.66 709.41 407.66C705.166 407.66 701.766 410.273 700.492 411.579V415.93C700.492 423.765 700.492 429.424 700.918 437.695L700.492 438.13C697.945 438.13 696.247 438.13 693.274 438.565L692.85 438.13C692.85 433.34 692.85 430.295 692.85 425.505C692.85 417.67 692.85 412.014 692 404.179L692.424 403.743C694.971 403.308 697.095 402.873 699.645 402.438L700.068 402.873C700.068 404.179 700.068 406.354 700.068 406.354C702.192 405.049 706.44 402 711.961 402C717.905 402 720.876 405.484 721.726 408.965C722.153 410.708 722.576 413.754 722.576 416.365V424.2C722.576 429.424 722.576 432.905 723 438.13L722.576 438.565C720.029 438.565 718.329 438.565 715.782 439V438.13Z" fill="#0F2D52"/>
<path d="M746 435.887C746 433.666 746.404 431.889 746.404 429.223L747.216 428.779C749.647 430.556 752.891 432.777 758.568 432.777C765.459 432.777 767.891 429.223 767.891 424.778C767.891 421.668 766.675 419.443 761.404 416.778L756.945 414.556C752.082 412.335 746.404 409.222 746.404 400.778C746.404 394.111 750.866 387 761.811 387C764.243 387 767.891 387 773.161 389.224L773.568 389.669C773.161 391.89 773.161 393.667 773.161 395.888L772.757 396.336C769.106 394.111 766.27 393.223 762.216 393.223C756.541 393.223 753.298 395.888 753.298 399.89C753.298 403 754.514 404.78 760.188 407.445L765.055 409.667C769.514 411.888 776 414.556 776 423.889C776 431.889 770.325 439 759.377 439C753.702 439 749.243 437.223 746.811 435.887H746Z" fill="#0F2D52"/>
<path d="M795 439C788.027 439 779 435.56 779 420.501C779 405.013 788.845 402 795.412 402C801.976 402 811 405.013 811 420.501C811 435.56 801.564 439 795 439ZM795 407.164C788.436 407.164 785.976 412.757 785.976 420.501C785.976 430.826 790.079 433.839 795 433.839C801.564 433.839 804.024 429.106 804.024 420.501C804.024 416.198 803.206 407.164 795 407.164Z" fill="#0F2D52"/>
<path d="M840.751 436.42C839.091 437.28 836.183 439 831.614 439C820.814 439 815 430.826 815 420.932C815 411.467 820.4 402 831.614 402C833.277 402 836.183 402 840.751 404.153L841.169 404.583C840.751 406.734 840.751 408.024 840.751 409.744L840.337 410.177C837.014 408.024 834.523 407.594 833.277 407.594C825.8 407.594 822.891 414.478 822.891 420.501C822.891 430.396 828.291 432.976 833.277 432.976C837.429 432.976 839.923 430.826 841.583 429.536L842 429.966C841.169 432.116 841.169 433.839 840.751 436.42Z" fill="#0F2D52"/>
<path d="M845.383 438.129C845.762 432.906 845.763 428.985 845.763 423.758C845.763 413.307 845.763 409.39 845 404.163L845.383 403.728C847.668 403.292 849.573 402.857 851.858 402.422L852.62 402.857C852.24 408.951 852.24 412.872 852.24 418.97C852.24 425.938 852.24 431.161 852.62 438.129L852.24 438.565C849.952 438.565 848.047 438.565 845.763 439L845.383 438.129ZM845.383 392.839C845.383 391.968 845.383 391.097 845.383 390.227C845.383 388.921 845.383 388.05 845.383 386.309L845.763 385.874C848.43 385.874 849.952 385.435 852.62 385L853 385.435C853 386.309 853 387.615 853 388.486C853 389.791 853 390.662 853 391.968L852.62 392.403C849.952 392.839 848.047 392.839 845.383 392.839Z" fill="#0F2D52"/>
<path d="M885.535 436.42C883.48 437.71 880.193 439 875.26 439C863.755 439 858 432.116 858 420.932C858 406.304 867.043 402 873.618 402C874.437 402 878.547 402 881.835 404.583C887.177 408.454 888 415.338 888 419.641V421.362L887.59 421.792C885.122 421.792 879.37 421.792 875.26 421.792C871.972 421.792 868.275 421.792 864.988 421.792C864.988 431.686 871.563 433.839 875.673 433.839C880.602 433.839 883.89 431.686 885.945 429.966L886.355 430.396C885.945 432.546 885.945 434.269 885.945 436.42H885.535ZM871.153 416.198C874.85 416.198 878.96 416.198 881.015 416.198C881.015 411.897 878.96 406.734 873.205 406.734C868.275 406.734 864.988 411.467 864.575 416.198H871.153Z" fill="#0F2D52"/>
<path d="M907.576 438.552C906.299 439 905.02 439 902.468 439C894.808 439 893.108 434.964 893.108 428.683C893.108 425.993 893.108 419.263 893.108 407.601C891.831 407.601 890.128 407.601 888.427 407.601L888 407.149C888 405.356 888 404.011 888 402.217L888.427 401.768C888.852 401.768 890.128 401.768 890.98 401.768C891.831 401.768 892.68 401.768 893.108 401.768C893.108 398.626 893.108 396.384 892.68 393.245L893.108 392.797C895.66 392.348 897.363 391.452 899.916 391L900.34 391.452C900.34 395.487 899.916 398.178 899.916 402.217C902.468 402.217 905.448 402.217 907.576 402.217L908 402.665C908 404.459 908 405.804 908 407.601L907.576 408.049C905.02 408.049 902.892 408.049 900.34 408.049C900.34 408.049 900.34 421.954 900.34 423.299C900.34 431.825 900.34 434.067 904.172 434.067C905.448 434.067 907.148 433.619 907.576 433.619L908 434.067C908 434.964 908 436.309 907.576 438.552Z" fill="#0F2D52"/>
<path d="M920.541 454C918.188 454 916.622 454 913.877 454L913.486 453.574C915.837 448.461 917.406 443.772 919.757 438.23C918.188 433.117 912.311 415.64 908 403.281V402.855C910.351 402.855 912.311 402.429 915.052 402L915.446 402.429C916.622 407.116 917.797 410.953 923.283 428.428C928.379 411.379 929.554 407.968 930.729 402.429L931.123 402H937V402.429C933.474 411.805 924.852 435.673 920.932 453.148L920.541 454Z" fill="#0F2D52"/>
<path d="M288.5 56C302.033 56 313 44.3595 313 29.9998C313 15.6405 302.033 4 288.5 4C274.97 4 264 15.6405 264 29.9998C264 44.3595 274.97 56 288.5 56Z" fill="#FAA21B"/>
<path d="M404.605 96.5707H394.378C392.015 96.5707 382.18 97 382.18 97L381.392 96.1413C381.788 83.2654 382.18 70.8186 382.18 58.3717V48.929C382.18 33.0487 382.18 17.168 381 1.28771L381.788 0.429333H390.442C394.77 0.429333 401.853 0 404.605 0L405 0.858368C404.605 19.7435 404.212 38.1989 404.212 57.084C404.212 69.9602 404.605 82.8361 405 95.7123L404.605 96.5707Z" fill="#006394"/>
<path d="M482.6 78.9733C482.202 84.5529 481.804 90.5618 481.804 95.7123L480.606 96.5707C462.269 96.5707 443.532 96.5707 424.798 97L424 96.1413C424.398 83.6945 424.798 70.8186 424.798 58.3717V30.0442C424.798 20.1725 424.798 10.7301 424 1.28771L424.798 0.429333C438.75 0.429333 472.237 0 480.606 0L481.404 0.858368C481.006 6.43794 480.606 11.1591 480.606 16.739L479.811 17.5974C469.048 17.168 458.282 17.168 447.519 17.168C447.519 19.7435 447.519 23.6063 447.519 27.4691C447.519 31.761 447.519 36.0532 447.519 39.0576C457.885 39.0576 467.85 39.0576 478.215 38.6283L479.013 39.4866C478.615 44.6372 478.215 49.7874 478.215 54.9379L477.417 55.7963C458.683 55.7963 447.92 55.7963 447.92 55.7963C447.92 63.9513 447.92 71.677 448.317 79.8316C459.878 79.8316 471.439 79.4026 483 78.9733H482.6Z" fill="#006394"/>
<path d="M553.596 78.9733C553.188 84.5529 552.784 90.5618 552.784 95.7123L551.568 96.5707C532.918 96.5707 513.866 96.5707 494.811 97L494 96.1413C494.407 83.6945 494.811 70.8186 494.811 58.3717V30.0442C494.811 20.1725 494.811 10.7301 494 1.28771L494.811 0.429333C509 0.429333 543.055 0 551.568 0L552.38 0.858368C551.973 6.43794 551.568 11.1591 551.568 16.739L550.757 17.5974C539.811 17.168 528.866 17.168 517.921 17.168C517.921 19.7435 517.921 23.6063 517.921 27.4691C517.921 31.761 517.921 36.0532 517.921 39.0576C528.459 39.0576 538.596 39.0576 549.137 38.6283L549.945 39.4866C549.541 44.6372 549.137 49.7874 549.137 54.9379L548.325 55.7963C529.27 55.7963 518.325 55.7963 518.325 55.7963C518.325 63.9513 518.325 71.677 518.73 79.8316C530.486 79.8316 542.243 79.4026 554 78.9733H553.596Z" fill="#006394"/>
<path d="M623.6 78.9733C623.202 84.5529 622.804 90.5618 622.804 95.7123L621.609 96.5707C603.269 96.5707 584.535 96.5707 565.798 97L565 96.1413C565.4 83.6945 565.798 70.8186 565.798 58.3717V30.0442C565.798 20.1725 565.798 10.7301 565 1.28771L565.798 0.429333C579.75 0.429333 613.237 0 621.609 0L622.404 0.858368C622.006 6.43794 621.609 11.1591 621.609 16.739L620.811 17.5974C610.048 17.168 599.285 17.168 588.519 17.168C588.519 19.7435 588.519 23.6063 588.519 27.4691C588.519 31.761 588.519 36.0532 588.519 39.0576C598.885 39.0576 608.852 39.0576 619.215 38.6283L620.013 39.4866C619.615 44.6372 619.215 49.7874 619.215 54.9379L618.42 55.7963C599.683 55.7963 588.92 55.7963 588.92 55.7963C588.92 63.9513 588.92 71.677 589.317 79.8316C600.878 79.8316 612.439 79.4026 624 78.9733H623.6Z" fill="#006394"/>
<path d="M375.458 330.549L373.433 331.839H323.215L322 329.69C341.843 262.609 362.092 195.099 381.531 128.02L383.153 126.73C406.235 126.3 434.179 125.87 452.807 125.87L454.832 127.16C473.464 194.67 492.092 261.75 510.316 329.26L508.291 331.409H479.536C470.628 331.409 460.908 331.839 451.999 332.269L449.974 330.549C446.328 314.21 443.495 297.87 439.444 281.528H385.986L375.458 330.549ZM430.129 239.819C430.129 239.819 419.601 192.089 414.336 165C411.096 180.05 407.046 195.099 396.112 239.819H430.129ZM581.996 331.839H559.724C556.077 331.839 552.434 331.839 526.515 332.699L524.49 331.409C525.301 288.838 526.515 246.27 526.515 203.699C526.515 178.76 526.108 153.82 525.301 128.45L527.326 127.16C546.358 127.16 591.715 126.3 603.46 126.3C631.404 126.3 661.373 129.31 675.547 157.26C678.787 163.71 682.837 174.46 682.837 191.66C682.837 199.4 682.433 221.33 668.256 239.819C648.818 265.618 616.015 266.048 587.668 266.048H583.211C583.211 266.048 582.807 282.39 582.807 289.698C582.807 303.028 583.211 316.789 583.617 330.12L581.996 331.839ZM583.211 223.05H587.668C603.056 223.05 622.495 219.178 622.495 192.52C622.495 174.03 611.154 167.58 596.17 167.58H582.807V223.05H583.211ZM779.221 271.209H694.175L692.96 269.919L694.582 229.07L696.2 226.918C705.516 226.918 729.005 227.348 745.204 227.348C757.353 227.348 769.098 227.348 781.653 226.918L782.867 228.641C782.057 239.389 781.653 255.729 780.842 269.06L779.221 271.209ZM808.382 275.94C824.174 292.28 849.285 293.139 855.358 293.139C873.178 293.139 881.277 283.68 881.277 274.651C881.277 262.609 870.746 257.448 862.244 254.01L848.475 247.989C806.761 230.36 804.332 202.839 804.332 186.07C804.332 159.41 816.48 122 877.226 122C885.327 122 905.577 122.43 928.659 133.61L929.874 135.33C928.659 149.09 928.255 165.43 927.445 180.479L925.016 181.77C918.94 176.609 905.17 164.14 882.491 164.14C868.317 164.14 861.838 173.6 861.838 181.77C861.838 192.089 869.939 196.39 880.062 201.119L899.097 209.719C930.281 223.48 940 243.258 940 268.2C940 284.54 933.52 304.318 920.561 316.789C903.551 333.129 883.706 337 858.598 337C852.118 337 825.389 336.57 806.761 327.538L804.736 324.529C805.95 309.049 806.761 292.709 806.761 277.659L808.382 275.94Z" fill="url(#paint0_radial_1_173)"/>
<path d="M310.751 129.31L314.818 115.413C315.631 112.807 313.598 109.767 311.16 109.767C279.445 109.333 254.644 99.7784 237.162 81.9724C218.866 62.4292 212.769 37.2404 211.141 22.4745C210.736 20.303 209.108 19 207.075 19H194.066C191.626 19 190 21.1715 190 23.7772C192.033 41.1491 198.539 72.8521 222.118 97.6068C242.853 119.321 270.907 131.047 306.688 131.916C308.313 132.35 309.94 131.047 310.751 129.31Z" fill="#75BC43"/>
<path d="M285.352 180.756C155.357 173.089 140.778 58.0776 139.158 27.8337C139.158 25.7038 137.133 24 135.108 24H114.05C111.62 24 110 26.1299 110 28.2598C112.025 63.6151 129.844 199.073 278.065 211C280.087 211 281.708 209.722 282.112 208.018L288.592 186.294C289.806 183.738 288.188 181.182 285.352 180.756Z" fill="#009BA6"/>
<path d="M260.555 265.338C67.2887 238.762 60.4154 69.4385 61.6283 28.2868C61.6283 25.7149 60.011 24 57.585 24H28.0696C26.0479 24 24.0263 25.7146 24.0263 27.858C23.6219 59.1506 27.2608 141.883 79.8228 210.469C119.042 261.482 176.456 292.774 250.448 303.918C252.467 304.346 254.086 303.061 254.895 300.918L263.789 270.483C264.599 268.338 262.98 265.767 260.555 265.338Z" fill="#006394"/>
<path d="M5 179.728V301.153C5 317.085 17.2705 330 32.4041 330H173.515C177.605 330 179.65 324.405 176.378 321.819C176.378 321.819 129.341 316.654 78.2138 271.873C29.541 228.814 11.9533 175.853 11.9533 175.853C9.09026 173.7 5 175.853 5 179.728Z" fill="#0F2D52"/>
<path d="M946.078 150H943.962C943.962 148.655 943.962 145.069 943.962 143.724V139.241H943.116C942.272 139.241 941.847 139.241 941 139.241C941 138.793 941 138.345 941 137.897V137.448H949.462C949.462 138.345 949.462 138.345 949.462 139.241H946.5V143.724C946.078 145.966 946.078 147.759 946.078 150ZM956.653 147.31C957.5 143.276 958.347 140.586 959.194 137.448H962.578C962.578 137.448 962.578 144.621 963 149.552C962.153 149.552 961.731 149.552 960.884 149.552C960.884 147.759 960.884 138.793 960.884 138.793L957.925 149.552H957.078C956.653 149.552 956.231 149.552 955.384 149.552C954.541 146.862 953.694 142.828 952.847 138.793C952.847 146.414 952.847 147.759 952.847 149.552C952 149.552 951.578 149.552 950.731 149.552V149.103C951.156 145.517 951.156 144.172 951.156 137H954.54C954.54 139.69 955.384 143.276 956.653 147.31Z" fill="#007378"/>
<path d="M1152.58 165.576C1148.85 165.576 1146.37 165.576 1142.63 166L1142.22 165.576C1140.56 158.798 1138.9 154.139 1137.24 147.361C1133.51 147.361 1130.2 147.361 1126.88 147.361C1123.56 147.361 1119.83 147.361 1116.51 147.361C1114.44 153.715 1113.2 158.375 1111.54 165.153L1111.12 165.576C1107.81 165.576 1105.73 165.576 1102.42 166L1102 165.576C1111.54 138.042 1119.41 114.319 1121.07 107.965L1121.49 105.847L1122.32 105.423C1126.88 105.423 1129.78 105.423 1134.34 105L1134.76 105.423L1135.17 106.694C1141.39 128.298 1146.37 143.548 1153 165.153L1152.58 165.576ZM1126.88 110.93L1118.17 140.16C1118.58 140.16 1123.97 140.16 1126.46 140.16C1129.37 140.16 1133.93 140.16 1135.17 140.16L1126.88 110.93Z" fill="#007378"/>
<path d="M1185.16 164.738V161.793C1182.74 163.896 1179.53 166 1173.49 166C1170.28 166 1166.26 165.159 1162.64 162.213C1156.61 157.165 1155 149.591 1155 144.122C1155 132.762 1160.63 119.72 1180.33 119.72C1181.94 119.72 1183.55 119.72 1185.16 119.72V117.195C1185.16 110.463 1184.75 105.415 1184.35 99.1037L1184.75 98.6829C1187.97 98.2623 1190.38 97.4209 1193.6 97L1194 97.4209C1193.2 112.567 1193.2 123.506 1193.2 138.652C1193.2 148.329 1193.2 155.061 1194 164.738L1193.6 165.159C1190.38 165.159 1188.37 165.159 1185.16 165.579V164.738ZM1185.56 139.073C1185.56 134.866 1185.56 129.396 1185.56 126.872C1183.95 126.872 1182.74 126.451 1181.54 126.451C1166.66 126.451 1165.05 138.232 1165.05 143.701C1165.05 154.64 1171.08 158.006 1176.71 158.006C1181.13 158.006 1183.95 155.903 1185.56 154.219C1185.56 151.695 1185.56 145.805 1185.56 141.598V139.073Z" fill="#007378"/>
<path d="M1212.34 165.574C1210.32 157.482 1208.3 151.518 1205.87 143.426C1203.45 135.333 1201.83 129.796 1199 121.704L1199.4 120.852C1202.64 120.426 1205.06 120.426 1208.3 120L1209.11 120.426C1212.74 134.482 1215.17 144.704 1218.81 158.759C1220.02 154.074 1220.83 150.667 1222.04 145.982C1224.87 136.611 1226.49 130.222 1228.51 120.852L1228.91 120.426H1232.96C1234.17 120.426 1235.38 120.426 1236.6 120.426L1237 120.852C1231.34 137.037 1228.11 148.537 1223.25 165.148L1222.85 165.574C1218.81 165.574 1216.38 165.574 1212.34 166V165.574Z" fill="#007378"/>
<path d="M1275 166.691C1271.71 166.691 1269.65 166.691 1266.35 167.127L1265.94 166.691V163.636C1263.88 165.818 1259.76 168 1254.82 168C1246.18 168 1240 162.764 1240 153.164C1240 138.763 1255.24 137.018 1264.29 135.709H1265.53C1265.53 132.218 1265.53 126.982 1257.71 126.982C1251.53 126.982 1247.41 129.163 1244.94 130.473L1244.12 130.036C1244.53 125.673 1244.53 124.8 1244.53 123.491L1244.94 123.055C1249.47 121.309 1255.24 120 1259.35 120C1265.53 120 1274.18 122.182 1274.18 133.963V148.8C1274.18 155.345 1274.18 160.145 1274.59 166.691H1275ZM1266.35 141.818H1265.53C1256.47 143.127 1249.06 144.873 1249.06 151.854C1249.06 154.036 1249.88 160.582 1256.88 160.582C1260.18 160.582 1263.47 159.709 1266.35 156.654V141.818Z" fill="#007378"/>
<path d="M1313.75 165.578C1313.75 159.67 1313.75 155.45 1313.75 149.119V141.101C1313.75 135.615 1313.35 127.596 1306.11 127.596C1300.88 127.596 1296.86 130.973 1294.85 132.238V137.725C1294.85 147.853 1294.85 155.027 1295.65 164.734L1295.25 165.156C1292.03 165.156 1290.02 165.156 1286.8 165.578L1286.4 165.156C1286.4 159.248 1286.8 155.45 1286.8 149.541C1286.8 139.835 1286.4 132.661 1286 122.532L1286.4 122.11C1289.62 121.688 1292.03 121.266 1295.25 120.422L1295.65 121.266C1295.65 122.954 1295.65 125.486 1295.65 125.486C1298.47 123.798 1303.29 120 1309.73 120C1317.37 120 1320.59 124.22 1321.79 128.44C1322.2 130.55 1322.6 134.771 1322.6 137.725V147.853C1322.6 154.183 1322.6 158.826 1323 165.156L1322.6 165.578C1319.38 165.578 1317.37 165.578 1314.55 166L1313.75 165.578Z" fill="#007378"/>
<path d="M1364.46 163.099C1362.14 164.342 1359.06 166 1353.66 166C1340.56 166 1334 156.054 1334 143.207C1334 131.604 1340.56 120 1353.66 120C1355.59 120 1359.44 120 1364.46 122.901L1364.84 123.315C1364.46 125.802 1364.46 127.459 1364.46 129.946L1363.68 130.36C1359.83 127.459 1356.75 127.045 1355.2 127.045C1345.95 127.045 1342.87 135.748 1342.87 143.207C1342.87 155.225 1349.42 158.955 1355.2 158.955C1360.22 158.955 1363.3 156.468 1365.23 154.811L1366 155.225C1365.61 157.712 1365.61 159.784 1365.23 162.685L1364.46 163.099Z" fill="#007378"/>
<path d="M1371.44 165.139C1371.88 158.253 1371.88 153.519 1371.88 146.633C1371.88 133.721 1371.88 128.127 1371 121.671L1371.44 121.24C1374.96 120.81 1377.6 120.38 1381.12 119.519L1382 119.95C1381.56 127.696 1381.56 132.861 1381.56 140.608C1381.56 149.646 1381.56 156.532 1382 165.139L1381.56 165.57C1378.04 165.57 1375.4 165.57 1371.88 166L1371.44 165.139ZM1371 107.469C1371 106.177 1371 104.886 1371 104.025C1371 102.304 1371 101.013 1371 99.2912L1371.44 98.8607C1375.4 98.4305 1377.6 98.4305 1381.56 98L1382 98.4305C1382 99.7215 1382 101.013 1382 102.304C1382 103.595 1382 105.317 1382 106.608L1381.56 107.038C1378.04 107.038 1375.4 107.469 1371.44 107.899L1371 107.469Z" fill="#007378"/>
<path d="M1421.75 165.578C1421.75 159.67 1421.75 155.45 1421.75 149.119V141.101C1421.75 135.615 1421.35 127.596 1414.11 127.596C1408.88 127.596 1404.86 130.973 1402.85 132.238V137.725C1402.85 147.853 1402.85 155.027 1403.65 164.734L1403.25 165.156C1400.03 165.156 1398.02 165.156 1394.81 165.578L1394.4 165.156C1394.4 159.248 1394.81 155.45 1394.81 149.541C1394.81 139.835 1394.4 132.661 1394 122.532L1394.4 122.11C1397.62 121.688 1400.03 121.266 1403.25 120.422L1403.65 121.266C1403.65 122.954 1403.65 125.486 1403.65 125.486C1406.47 123.798 1411.29 120 1417.73 120C1425.37 120 1428.59 124.22 1429.79 128.44C1430.2 130.55 1430.6 134.771 1430.6 137.725V147.853C1430.6 154.183 1430.6 158.826 1431 165.156L1430.6 165.578C1427.38 165.578 1425.37 165.578 1422.56 166L1421.75 165.578Z" fill="#007378"/>
<path d="M1441.84 159.795C1443.87 156.308 1445.5 154.128 1447.53 150.641C1441.44 148.026 1439.41 141.923 1439.41 137.128C1439.41 132.334 1441.03 128.846 1442.66 127.103C1446.72 121.436 1453.22 121 1458.09 121C1459.72 121 1462.16 121 1465 121C1473.12 121 1474.75 121 1477.59 121L1478 121.436C1478 123.616 1477.59 124.923 1477.59 127.103L1477.19 127.539L1470.28 127.103C1471.91 128.41 1474.34 131.897 1474.34 137.128C1474.34 145.41 1468.66 152.385 1458.09 152.385C1456.87 152.385 1455.66 152.385 1454.44 151.949L1452 155.872C1461.75 158.923 1468.25 158.923 1472.31 162.846C1476.78 166.769 1476.78 171.564 1476.78 172.872C1476.78 180.718 1471.09 189 1457.69 189C1445.09 189 1439 182.897 1439 175.051C1439 168.513 1443.06 164.59 1446.31 161.975C1445.09 161.539 1443.87 160.667 1442.25 160.231L1441.84 159.795ZM1451.59 165.026C1449.97 167.205 1446.72 169.82 1446.72 174.616C1446.72 178.974 1449.97 183.769 1457.69 183.769C1464.59 183.769 1467.84 179.846 1467.84 175.487C1467.84 169.82 1462.56 168.077 1458.91 167.205L1451.59 165.026ZM1456.87 126.667C1451.19 126.667 1447.94 131.462 1447.94 136.692C1447.94 139.308 1449.16 146.718 1456.87 146.718C1465 146.718 1465.41 138.872 1465.41 136.692C1465 131.897 1462.56 126.667 1456.87 126.667Z" fill="#007378"/>
<path d="M1143.31 256.573C1130.22 256.573 1120.93 256.573 1107.42 257L1107 256.573C1107.42 246.312 1107.42 239.042 1107.42 228.778V224.504C1107.42 213.814 1107.42 206.545 1107 195.855L1107.42 195.428C1120.93 195.428 1132.33 195 1143.73 195L1144.15 195.428C1143.73 197.993 1143.73 199.703 1143.73 202.269L1143.31 202.697C1134.02 202.269 1127.27 202.269 1117.55 202.269C1117.55 207.4 1117.55 210.821 1117.55 215.952V220.654H1125.15C1131.07 220.654 1135.71 220.654 1141.62 220.227L1142.04 220.654C1141.62 223.222 1141.62 224.932 1141.62 227.496L1141.2 227.924C1133.6 227.924 1128.53 227.496 1121.36 227.496H1117.55C1117.55 231.346 1117.55 234.765 1117.55 238.188C1117.55 241.607 1117.55 246.312 1117.55 248.021H1121.36C1129.8 248.021 1136.13 248.021 1144.58 247.594L1145 248.021C1145 250.586 1144.58 252.295 1144.58 254.435L1143.31 256.573Z" fill="#007378"/>
<path d="M1151.4 256.574C1151.8 245.501 1151.8 237.835 1151.8 227.184C1151.8 219.092 1151.8 213.982 1151.8 205.889C1151.8 199.926 1151.4 196.093 1151 190.13L1151.4 189.704C1154.6 189.278 1157 188.852 1160.2 188L1160.6 188.426C1160.2 198.222 1160.2 211.426 1160.2 222.501C1160.2 234.425 1160.2 244.224 1161 256.148L1160.6 256.574C1157.4 256.574 1155.4 256.574 1152.2 257L1151.4 256.574Z" fill="#007378"/>
<path d="M1207.17 254.542C1204.34 255.839 1200.3 258 1194.23 258C1179.68 258 1172 248.919 1172 234.216C1172 215.622 1183.72 210 1191.81 210C1193.02 210 1197.87 210 1202.32 213.027C1209.19 217.784 1210 226.864 1210 232.487V234.648L1209.59 235.083C1206.36 235.083 1199.49 235.083 1194.23 235.083C1189.79 235.083 1185.74 235.083 1181.3 235.083C1181.3 248.055 1189.38 250.651 1194.64 250.651C1201.1 250.651 1205.15 248.055 1207.98 245.461L1208.79 245.893C1208.38 248.919 1208.38 251.084 1207.98 253.677L1207.17 254.542ZM1188.98 228.596C1193.42 228.596 1198.68 228.596 1201.51 228.596C1201.51 222.973 1198.68 216.487 1191.81 216.487C1185.34 216.487 1181.3 222.541 1180.9 228.596H1188.98Z" fill="#007378"/>
<path d="M1248.36 254.974C1245.9 256.271 1242.63 258 1236.89 258C1222.96 258 1216 247.622 1216 234.216C1216 222.109 1222.96 210 1236.89 210C1238.94 210 1243.04 210 1248.36 213.027L1248.77 213.46C1248.36 216.054 1248.36 217.784 1248.36 220.38L1247.54 220.812C1243.45 217.784 1240.17 217.352 1238.53 217.352C1228.7 217.352 1225.42 226.432 1225.42 234.216C1225.42 246.758 1232.39 250.651 1238.53 250.651C1243.85 250.651 1247.13 248.055 1249.18 246.325L1250 246.758C1249.59 249.351 1249.59 251.516 1249.18 254.542L1248.36 254.974Z" fill="#007378"/>
<path d="M1274.2 256.145C1272.6 256.573 1271 257 1268.2 257C1258.6 257 1257 251.869 1257 244.173C1257 241.181 1257 232.631 1257.4 218.521C1255.8 218.521 1253.8 218.521 1251.4 218.949L1251 218.521C1251 216.384 1251 214.674 1251 212.109L1251.4 211.681C1251.8 211.681 1253.4 211.681 1254.2 211.681C1255 211.681 1256.2 211.681 1257 211.681C1257 207.833 1257 205.268 1256.6 200.993L1257 200.565C1260.2 199.71 1262.2 199.282 1265.4 198L1265.8 198.427C1265.4 203.13 1265.4 206.978 1265.4 211.681C1268.6 211.681 1272.2 211.254 1274.6 211.254L1275 211.681C1275 213.819 1274.6 215.529 1274.6 217.667L1274.2 218.094C1271 218.094 1268.6 218.094 1265.4 218.094C1265.4 218.094 1265.4 235.195 1265.4 236.907C1265.4 247.595 1265.4 250.159 1270.2 250.159C1271.8 250.159 1273.8 249.732 1274.2 249.304L1274.6 249.732C1274.2 251.869 1274.2 253.581 1274.2 255.718V256.145Z" fill="#007378"/>
<path d="M1290.72 256.573C1287.61 256.573 1285.28 256.573 1282.17 257L1281.78 256.573V252.726C1281.78 251.445 1281.78 239.056 1281.78 235.636C1281.78 229.226 1281.78 219.827 1281 212.991L1281.39 212.564C1284.5 211.709 1286.45 211.282 1289.56 210.854L1289.94 211.282L1289.56 218.545C1290.72 215.554 1292.67 210 1299.28 210C1300.44 210 1301.22 210 1301.61 210.427L1302 210.854C1301.22 214.273 1300.83 216.409 1300.44 219.827L1300.06 220.254C1298.5 219.4 1297.72 219.4 1296.94 219.4C1295 219.4 1290.33 220.681 1290.33 229.226V235.636C1290.33 242.9 1290.33 248.028 1290.72 255.292V256.573Z" fill="#007378"/>
<path d="M1328.21 258C1319.47 258 1307 253.677 1307 233.783C1307 213.892 1319.89 210 1328.62 210C1337.36 210 1349 213.892 1349 234.216C1349 253.677 1336.94 258 1328.21 258ZM1328.62 216.487C1319.89 216.487 1316.56 223.838 1316.56 233.783C1316.56 247.19 1321.97 251.084 1328.21 251.084C1336.52 251.084 1340.27 244.596 1340.27 234.216C1339.85 228.596 1339.02 216.487 1328.62 216.487Z" fill="#007378"/>
<path d="M1411.15 256.569C1411.15 247.083 1411.57 241.046 1411.57 230.267C1411.57 225.091 1410.74 217.762 1403.77 217.762C1398.85 217.762 1394.74 220.781 1392.69 222.074C1392.69 223.367 1393.1 229.836 1393.1 231.129V242.339C1393.1 247.514 1393.51 250.966 1393.51 256.138L1393.1 256.569C1389.82 256.569 1387.77 256.569 1384.49 257L1384.08 256.569C1384.49 250.534 1384.49 246.221 1384.49 241.046V230.698C1384.49 225.522 1383.67 217.762 1376.69 217.762C1375.05 217.762 1370.95 218.193 1366.43 222.074V226.815C1366.43 228.974 1366.43 235.442 1366.43 239.753C1366.43 244.928 1366.43 250.1 1366.85 256.138L1366.43 256.569C1363.15 256.569 1361.1 256.569 1357.82 257L1357.41 256.569C1357.41 250.1 1357.82 245.359 1357.82 238.89C1357.82 224.66 1357.82 221.212 1357 213.018L1357.41 212.587C1360.69 212.156 1363.15 211.725 1366.43 210.862L1366.85 211.294V215.606C1369.31 213.881 1374.23 210 1380.38 210C1384.49 210 1388.59 210.862 1391.46 216.468C1394.33 214.312 1399.67 210 1407.05 210C1420.18 210 1420.59 222.074 1420.59 226.384C1420.59 228.112 1420.59 234.146 1420.59 239.753C1420.59 245.79 1420.59 250.1 1421 255.707L1420.59 256.138C1417.31 256.138 1415.26 256.138 1411.97 256.569H1411.15Z" fill="#007378"/>
<path d="M1464 256.146C1460.71 256.146 1458.65 256.146 1455.35 256.573L1454.94 256.146V252.729C1452.88 254.864 1448.76 257 1443.82 257C1435.18 257 1429 251.875 1429 242.475C1429 228.374 1444.24 226.663 1453.29 225.381H1454.53C1454.53 221.964 1454.53 216.837 1446.71 216.837C1440.53 216.837 1436.41 218.972 1433.94 220.256L1433.12 219.829C1433.53 215.555 1433.53 214.7 1433.53 213.418L1433.94 212.991C1438.47 211.282 1444.24 210 1448.35 210C1454.53 210 1463.18 212.137 1463.18 223.673V238.201C1463.18 244.611 1463.18 249.309 1463.59 255.719L1464 256.146ZM1455.35 231.791H1454.53C1445.47 233.072 1438.06 234.784 1438.06 241.618C1438.06 243.756 1438.88 250.166 1445.88 250.166C1449.18 250.166 1452.47 249.309 1455.35 246.319V231.791Z" fill="#007378"/>
<path d="M1475.84 249.794C1477.88 246.308 1479.5 244.129 1481.53 240.64C1475.44 238.026 1473.41 231.923 1473.41 227.13C1473.41 222.334 1475.03 218.845 1476.66 217.102C1480.72 211.436 1487.22 211 1492.09 211C1493.72 211 1496.16 211 1499 211C1507.13 211 1508.75 211 1511.59 211L1512 211.436C1512 213.615 1511.59 214.923 1511.59 217.102L1511.19 217.538L1504.28 217.102C1505.91 218.41 1508.34 221.898 1508.34 227.13C1508.34 235.412 1502.66 242.383 1492.09 242.383C1490.88 242.383 1489.66 242.383 1488.44 241.948L1486 245.872C1495.75 248.922 1502.25 248.922 1506.31 252.847C1510.78 256.769 1510.78 261.565 1510.78 262.872C1510.78 270.718 1505.09 279 1491.69 279C1479.09 279 1473 272.897 1473 265.051C1473 258.515 1477.06 254.59 1480.31 251.976C1479.09 251.54 1477.88 250.668 1476.25 250.23L1475.84 249.794ZM1485.59 255.026C1483.97 257.204 1480.72 259.822 1480.72 264.615C1480.72 268.975 1483.97 273.768 1491.69 273.768C1498.59 273.768 1501.84 269.847 1501.84 265.486C1501.84 259.822 1496.56 258.076 1492.91 257.204L1485.59 255.026ZM1490.88 217.102C1485.19 217.102 1481.94 221.898 1481.94 227.13C1481.94 229.744 1483.16 237.155 1490.88 237.155C1499 237.155 1499.41 229.308 1499.41 227.13C1499.41 221.898 1496.97 217.102 1490.88 217.102Z" fill="#007378"/>
<path d="M1545.75 256.569C1545.75 250.534 1545.75 246.221 1545.75 239.753V231.56C1545.75 225.953 1545.35 217.762 1538.11 217.762C1532.88 217.762 1528.86 221.212 1526.85 222.505V228.112C1526.85 238.459 1526.85 245.79 1527.65 255.707L1527.25 256.138C1524.03 256.138 1522.02 256.138 1518.8 256.569L1518.4 256.138C1518.4 250.1 1518.8 246.221 1518.8 240.184C1518.8 230.267 1518.4 222.936 1518 212.587L1518.4 212.156C1521.62 211.725 1524.03 211.294 1527.25 210.431L1527.65 211.294C1527.65 213.018 1527.65 215.606 1527.65 215.606C1530.47 213.881 1535.3 210 1541.73 210C1549.37 210 1552.59 214.312 1553.79 218.623C1554.19 220.781 1554.6 225.091 1554.6 228.112V238.459C1554.6 244.928 1554.6 249.669 1555 256.138L1554.6 256.569C1551.38 256.569 1549.37 256.569 1546.55 257L1545.75 256.569Z" fill="#007378"/>
<path d="M1599.09 254.542C1596.19 255.839 1592.04 258 1585.82 258C1570.88 258 1563 248.919 1563 234.216C1563 215.622 1575.03 210 1583.33 210C1584.57 210 1589.55 210 1594.12 213.027C1601.17 217.784 1602 226.864 1602 232.487V234.648L1601.59 235.083C1598.27 235.083 1591.21 235.083 1585.82 235.083C1581.25 235.083 1577.11 235.083 1572.54 235.083C1572.54 248.055 1580.84 250.651 1586.23 250.651C1592.87 250.651 1597.02 248.055 1599.93 245.461L1600.76 245.893C1600.34 248.919 1600.34 251.084 1599.93 253.677L1599.09 254.542ZM1580.43 228.596C1584.99 228.596 1590.38 228.596 1593.29 228.596C1593.29 222.973 1590.38 216.487 1583.33 216.487C1576.69 216.487 1572.54 222.541 1572.13 228.596H1580.43Z" fill="#007378"/>
<path d="M1629.17 256.145C1627.5 256.573 1625.83 257 1622.92 257C1612.92 257 1611.25 251.869 1611.25 244.173C1611.25 241.181 1611.25 232.631 1611.67 218.521C1610 218.521 1607.92 218.521 1605.42 218.949L1605 218.521C1605 216.384 1605 214.674 1605 212.109L1605.42 211.681C1605.83 211.681 1607.5 211.681 1608.33 211.681C1609.17 211.681 1610.42 211.681 1611.25 211.681C1611.25 207.833 1611.25 205.268 1610.84 200.993L1611.25 200.565C1614.58 199.71 1616.67 199.282 1620 198L1620.42 198.427C1620 203.13 1620 206.978 1620 211.681C1623.33 211.681 1627.08 211.254 1629.58 211.254L1630 211.681C1630 213.819 1629.58 215.529 1629.58 217.667L1629.17 218.094C1625.83 218.094 1623.33 218.094 1620 218.094C1620 218.094 1620 235.195 1620 236.907C1620 247.595 1620 250.159 1625 250.159C1626.67 250.159 1628.75 249.732 1629.17 249.304L1629.58 249.732C1629.17 251.869 1629.17 253.581 1629.17 255.718V256.145Z" fill="#007378"/>
<path d="M1637.39 256.145C1637.77 249.302 1637.77 244.599 1637.77 237.756C1637.77 224.924 1637.77 219.364 1637 212.95L1637.39 212.522C1640.46 212.095 1642.77 211.667 1645.85 210.812L1646.62 211.239C1646.23 218.936 1646.23 224.069 1646.23 231.768C1646.23 240.748 1646.23 247.592 1646.62 256.145L1646.23 256.572C1643.15 256.572 1640.85 256.572 1637.77 257L1637.39 256.145ZM1637.39 198.409C1637.39 197.126 1637.39 195.843 1637.39 194.987C1637.39 193.277 1637.39 191.994 1637.39 190.283L1637.77 189.855C1641.23 189.428 1643.15 189.428 1646.62 189L1647 189.428C1647 190.711 1647 191.993 1647 193.277C1647 194.56 1647 196.27 1647 197.554L1646.62 197.981C1643.54 197.981 1641.23 198.409 1637.77 198.836L1637.39 198.409Z" fill="#007378"/>
<path d="M1688.36 254.974C1685.9 256.271 1682.63 258 1676.89 258C1662.96 258 1656 247.622 1656 234.216C1656 222.109 1662.96 210 1676.89 210C1678.94 210 1683.03 210 1688.36 213.027L1688.77 213.46C1688.36 216.054 1688.36 217.784 1688.36 220.38L1687.54 220.812C1683.45 217.784 1680.17 217.352 1678.53 217.352C1668.7 217.352 1665.42 226.432 1665.42 234.216C1665.42 246.758 1672.39 250.651 1678.53 250.651C1683.85 250.651 1687.13 248.055 1689.18 246.325L1690 246.758C1689.59 249.351 1689.59 251.516 1689.18 254.542L1688.36 254.974Z" fill="#007378"/>
<path d="M1692.41 254.01C1692.83 251.447 1692.83 249.309 1692.83 246.746L1693.66 246.319C1696.16 248.028 1699.9 250.593 1705.71 250.593C1711.53 250.593 1714.86 247.6 1714.86 244.183C1714.86 239.909 1710.28 238.628 1706.54 237.347L1702.81 236.065C1699.06 234.784 1692 232.218 1692 223.246C1692 216.409 1697.4 210 1709.04 210C1714.86 210 1719.01 211.709 1721.09 212.564L1721.51 212.991C1721.09 215.555 1721.09 217.264 1721.09 219.829L1720.26 220.256C1716.52 217.691 1713.19 216.837 1709.46 216.837C1704.47 216.837 1701.14 218.972 1701.14 222.392C1701.14 226.663 1706.96 227.947 1709.87 228.801L1712.78 229.655C1715.69 230.51 1724 233.5 1724 242.475C1724 251.447 1716.52 257 1706.13 257C1699.06 257 1695.74 255.719 1692.83 254.437L1692.41 254.01Z" fill="#007378"/>
<path d="M1117.42 346.567C1113.67 346.567 1111.17 346.567 1107.42 347L1107 346.567C1107.42 340.972 1107.42 312.125 1107.42 309.113C1107.42 300.499 1107.42 294.474 1107 285.864L1107.42 285.433H1112.42C1116.17 285.433 1138.67 285.433 1141.58 285L1142 285.433C1141.58 288.016 1141.58 289.737 1141.58 292.319L1141.17 292.753C1132.42 292.319 1126.17 292.319 1117.42 292.319C1117.42 299.639 1117.42 304.806 1117.42 312.125C1125.33 312.125 1130.75 312.125 1138.67 311.695L1139.08 312.125C1139.08 314.707 1138.67 316.432 1138.67 319.014L1138.25 319.444C1130.75 319.014 1125.33 319.014 1118.25 319.014C1118.25 319.875 1118.25 322.027 1118.25 323.751C1118.25 331.931 1118.25 337.526 1118.67 345.706L1117.42 346.567Z" fill="#007378"/>
<path d="M1155.65 346.564C1152.24 346.564 1149.68 346.564 1146.28 347L1145.85 346.564V342.635C1145.85 341.326 1145.85 328.674 1145.85 325.181C1145.85 318.635 1145.85 309.036 1145 302.053L1145.42 301.617C1148.83 300.745 1150.96 300.309 1154.37 299.872L1154.8 300.309L1154.37 307.727C1155.65 304.671 1157.78 299 1165.02 299C1166.3 299 1167.15 299 1167.58 299.436L1168 299.872C1167.15 303.362 1166.72 305.546 1166.3 309.036L1165.87 309.472C1164.17 308.599 1163.32 308.599 1162.46 308.599C1160.34 308.599 1155.22 309.908 1155.22 318.635V325.617C1155.22 333.036 1155.22 338.273 1155.65 345.691V346.564Z" fill="#007378"/>
<path d="M1191.7 348C1183.17 348 1171 343.584 1171 323.279C1171 302.971 1183.58 299 1192.1 299C1200.63 299 1211.99 302.971 1211.99 323.721C1212.39 343.584 1200.22 348 1191.7 348ZM1192.1 306.063C1183.58 306.063 1180.34 313.568 1180.34 323.721C1180.34 337.406 1185.61 341.378 1191.7 341.378C1199.82 341.378 1203.47 334.756 1203.47 324.162C1203.47 317.981 1202.25 306.063 1192.1 306.063Z" fill="#007378"/>
<path d="M1249 346.56C1249 340.394 1249 335.989 1249 329.386V321.019C1249 315.293 1248.61 306.927 1241.57 306.927C1236.48 306.927 1232.57 310.448 1230.61 311.769V317.494C1230.61 328.062 1230.61 335.549 1231.39 345.679L1231 346.12C1227.87 346.12 1225.91 346.12 1222.78 346.56L1222.39 346.12C1222.39 339.954 1222.78 335.989 1222.78 329.826C1222.78 319.695 1222.39 312.209 1222 301.641L1222.39 301.201C1225.52 300.761 1227.87 300.321 1231 299.44L1231.39 300.321C1231.39 302.081 1231.39 304.723 1231.39 304.723C1234.13 302.962 1238.83 299 1245.09 299C1252.52 299 1255.65 303.402 1256.83 307.807C1257.22 310.008 1257.61 314.413 1257.61 317.494V328.062C1257.61 334.668 1257.61 339.514 1258 346.12L1257.61 346.56C1254.48 346.56 1252.52 346.56 1249.78 347L1249 346.56Z" fill="#007378"/>
<path d="M1287.23 346.157C1285.7 346.58 1284.17 347 1281.48 347C1272.28 347 1270.75 341.956 1270.75 334.391C1270.75 331.45 1270.75 323.041 1271.13 309.175C1269.6 309.175 1267.68 309.175 1265.38 309.595L1265 309.175C1265 307.071 1265 305.391 1265 302.87L1265.38 302.45C1265.77 302.45 1267.3 302.45 1268.07 302.45C1268.83 302.45 1269.98 302.45 1270.75 302.45C1270.75 298.666 1270.75 296.145 1270.37 291.941L1270.75 291.521C1273.82 290.68 1275.73 290.26 1278.8 289L1279.18 289.42C1278.8 294.044 1278.8 297.825 1278.8 302.45C1281.87 302.45 1285.32 302.03 1287.61 302.03L1288 302.45C1288 304.55 1287.61 306.231 1287.61 308.331L1287.23 308.754C1284.17 308.754 1281.87 308.754 1278.8 308.754C1278.8 308.754 1278.8 325.565 1278.8 327.246C1278.8 337.751 1278.8 340.275 1283.4 340.275C1284.93 340.275 1286.85 339.855 1287.23 339.435L1287.61 339.855C1287.23 341.956 1287.23 343.636 1287.23 345.737V346.157Z" fill="#007378"/>
<path d="M1295.4 346.152C1295.8 339.367 1295.8 334.704 1295.8 327.919C1295.8 315.196 1295.8 309.682 1295 303.323L1295.4 302.9C1298.6 302.476 1301 302.049 1304.2 301.201L1305 301.625C1304.6 309.258 1304.6 314.348 1304.6 321.981C1304.6 330.886 1304.6 337.671 1305 346.152L1304.6 346.576C1301.4 346.576 1299 346.576 1295.8 347L1295.4 346.152ZM1295 289.329C1295 288.057 1295 287.209 1295 285.935C1295 284.239 1295 282.967 1295 281.272L1295.4 280.848C1299 280.424 1301 280.424 1304.6 280L1305 280.424C1305 281.696 1305 282.967 1305 284.239C1305 285.511 1305 287.209 1305 288.481L1304.6 288.905C1301.4 288.905 1299 289.329 1295.4 289.753L1295 289.329Z" fill="#007378"/>
<path d="M1349.09 344.467C1346.19 345.791 1342.04 348 1335.82 348C1320.88 348 1313 338.728 1313 323.719C1313 304.739 1325.03 299 1333.33 299C1334.57 299 1339.55 299 1344.11 302.092C1351.17 306.946 1352 316.215 1352 321.954V324.16L1351.58 324.605C1348.26 324.605 1341.21 324.605 1335.82 324.605C1331.26 324.605 1327.11 324.605 1322.54 324.605C1322.54 337.845 1330.84 340.496 1336.23 340.496C1342.87 340.496 1347.02 337.845 1349.93 335.198L1350.75 335.639C1350.34 338.728 1350.34 340.937 1349.93 343.584L1349.09 344.467ZM1330.84 317.542C1335.41 317.542 1340.8 317.542 1343.7 317.542C1343.7 311.802 1340.8 305.181 1333.74 305.181C1327.11 305.181 1322.96 311.361 1322.54 317.542H1330.84Z" fill="#007378"/>
<path d="M1370.18 346.564C1366.93 346.564 1364.48 346.564 1361.22 347L1360.82 346.564V342.635C1360.82 341.326 1360.82 328.674 1360.82 325.181C1360.82 318.635 1360.82 309.036 1360 302.053L1360.41 301.617C1363.67 300.745 1365.7 300.309 1368.96 299.872L1369.37 300.309L1368.96 307.727C1370.18 304.671 1372.22 299 1379.15 299C1380.37 299 1381.19 299 1381.59 299.436L1382 299.872C1381.19 303.362 1380.78 305.546 1380.37 309.036L1379.96 309.472C1378.33 308.599 1377.52 308.599 1376.7 308.599C1374.67 308.599 1369.78 309.908 1369.78 318.635V325.617C1369.78 333.036 1369.78 338.273 1370.18 345.691V346.564Z" fill="#007378"/>
<path d="M1385.43 343.944C1385.85 341.326 1385.85 339.145 1385.85 336.528L1386.71 336.089C1389.28 337.837 1393.14 340.454 1399.14 340.454C1405.14 340.454 1408.57 337.401 1408.57 333.908C1408.57 329.546 1403.86 328.234 1400 326.926L1396.14 325.617C1392.28 324.309 1385 321.691 1385 312.525C1385 305.546 1390.57 299 1402.57 299C1408.57 299 1412.86 300.745 1415 301.617L1415.43 302.053C1415 304.671 1415 306.418 1415 309.036L1414.14 309.472C1410.29 306.855 1406.86 305.982 1403 305.982C1397.86 305.982 1394.43 308.163 1394.43 311.653C1394.43 316.018 1400.43 317.326 1403.43 318.199L1406.43 319.071C1409.43 319.944 1418 323 1418 332.163C1418 341.326 1410.29 347 1399.57 347C1392.28 347 1388.86 345.691 1385.85 344.383L1385.43 343.944Z" fill="#007378"/>
<path d="M1025 97H1024V359H1025V97Z" fill="#0F2D52"/>
</g>
<defs>
<radialGradient id="paint0_radial_1_173" cx="0" cy="0" r="1" gradientUnits="userSpaceOnUse" gradientTransform="translate(642.027 156.059) scale(337.029 234.427)">
<stop stop-color="#009BA6"/>
<stop offset="0.1441" stop-color="#00949E"/>
<stop offset="0.6842" stop-color="#007C82"/>
<stop offset="1" stop-color="#007378"/>
</radialGradient>
<clipPath id="clip0_1_173">
<rect width="1724" height="455" fill="white"/>
</clipPath>
</defs>
</svg>
